<svg width="497" height="76" viewBox="0 0 497 76" fill="none" xmlns="http://www.w3.org/2000/svg">
<path d="M90.752 13.392V58H84.928V13.392H90.752ZM142.854 22.288C145.585 22.288 148.017 22.864 150.15 24.016C152.283 25.1253 153.969 26.8107 155.206 29.072C156.443 31.3333 157.062 34.0853 157.062 37.328V58H151.302V38.16C151.302 34.6613 150.427 31.9947 148.678 30.16C146.971 28.2827 144.646 27.344 141.702 27.344C138.673 27.344 136.262 28.3253 134.47 30.288C132.678 32.208 131.782 35.0027 131.782 38.672V58H126.022V38.16C126.022 34.6613 125.147 31.9947 123.398 30.16C121.691 28.2827 119.366 27.344 116.422 27.344C113.393 27.344 110.982 28.3253 109.19 30.288C107.398 32.208 106.502 35.0027 106.502 38.672V58H100.678V22.928H106.502V27.984C107.654 26.1493 109.19 24.7413 111.11 23.76C113.073 22.7787 115.227 22.288 117.574 22.288C120.518 22.288 123.121 22.9493 125.382 24.272C127.643 25.5947 129.329 27.536 130.438 30.096C131.419 27.6213 133.041 25.7013 135.302 24.336C137.563 22.9707 140.081 22.288 142.854 22.288ZM164.44 40.336C164.44 36.752 165.165 33.616 166.616 30.928C168.066 28.1973 170.05 26.0853 172.568 24.592C175.128 23.0987 177.965 22.352 181.08 22.352C184.152 22.352 186.818 23.0133 189.08 24.336C191.341 25.6587 193.026 27.3227 194.136 29.328V22.928H200.024V58H194.136V51.472C192.984 53.52 191.256 55.2267 188.952 56.592C186.69 57.9147 184.045 58.576 181.016 58.576C177.901 58.576 175.085 57.808 172.568 56.272C170.05 54.736 168.066 52.5813 166.616 49.808C165.165 47.0347 164.44 43.8773 164.44 40.336ZM194.136 40.4C194.136 37.7547 193.602 35.4507 192.536 33.488C191.469 31.5253 190.018 30.032 188.184 29.008C186.392 27.9413 184.408 27.408 182.232 27.408C180.056 27.408 178.072 27.92 176.28 28.944C174.488 29.968 173.058 31.4613 171.992 33.424C170.925 35.3867 170.392 37.6907 170.392 40.336C170.392 43.024 170.925 45.3707 171.992 47.376C173.058 49.3387 174.488 50.8533 176.28 51.92C178.072 52.944 180.056 53.456 182.232 53.456C184.408 53.456 186.392 52.944 188.184 51.92C190.018 50.8533 191.469 49.3387 192.536 47.376C193.602 45.3707 194.136 43.0453 194.136 40.4ZM224.33 22.352C227.359 22.352 230.004 23.0133 232.266 24.336C234.57 25.6587 236.276 27.3227 237.386 29.328V22.928H243.274V58.768C243.274 61.968 242.591 64.8053 241.226 67.28C239.86 69.7973 237.898 71.76 235.338 73.168C232.82 74.576 229.876 75.28 226.506 75.28C221.898 75.28 218.058 74.192 214.986 72.016C211.914 69.84 210.1 66.8747 209.546 63.12H215.306C215.946 65.2533 217.268 66.96 219.274 68.24C221.279 69.5627 223.69 70.224 226.506 70.224C229.706 70.224 232.308 69.2213 234.314 67.216C236.362 65.2107 237.386 62.3947 237.386 58.768V51.408C236.234 53.456 234.527 55.1627 232.266 56.528C230.004 57.8933 227.359 58.576 224.33 58.576C221.215 58.576 218.378 57.808 215.818 56.272C213.3 54.736 211.316 52.5813 209.866 49.808C208.415 47.0347 207.69 43.8773 207.69 40.336C207.69 36.752 208.415 33.616 209.866 30.928C211.316 28.1973 213.3 26.0853 215.818 24.592C218.378 23.0987 221.215 22.352 224.33 22.352ZM237.386 40.4C237.386 37.7547 236.852 35.4507 235.786 33.488C234.719 31.5253 233.268 30.032 231.434 29.008C229.642 27.9413 227.658 27.408 225.482 27.408C223.306 27.408 221.322 27.92 219.53 28.944C217.738 29.968 216.308 31.4613 215.242 33.424C214.175 35.3867 213.642 37.6907 213.642 40.336C213.642 43.024 214.175 45.3707 215.242 47.376C216.308 49.3387 217.738 50.8533 219.53 51.92C221.322 52.944 223.306 53.456 225.482 53.456C227.658 53.456 229.642 52.944 231.434 51.92C233.268 50.8533 234.719 49.3387 235.786 47.376C236.852 45.3707 237.386 43.0453 237.386 40.4ZM285.116 39.12C285.116 40.2293 285.052 41.4027 284.924 42.64H256.892C257.105 46.096 258.278 48.8053 260.412 50.768C262.588 52.688 265.212 53.648 268.284 53.648C270.801 53.648 272.892 53.072 274.556 51.92C276.262 50.7253 277.457 49.1467 278.14 47.184H284.412C283.473 50.5547 281.596 53.3067 278.78 55.44C275.964 57.5307 272.465 58.576 268.284 58.576C264.956 58.576 261.969 57.8293 259.324 56.336C256.721 54.8427 254.673 52.7307 253.18 50C251.686 47.2267 250.94 44.0267 250.94 40.4C250.94 36.7733 251.665 33.5947 253.116 30.864C254.566 28.1333 256.593 26.0427 259.196 24.592C261.841 23.0987 264.87 22.352 268.284 22.352C271.612 22.352 274.556 23.0773 277.116 24.528C279.676 25.9787 281.638 27.984 283.004 30.544C284.412 33.0613 285.116 35.92 285.116 39.12ZM279.1 37.904C279.1 35.6853 278.609 33.7867 277.628 32.208C276.646 30.5867 275.302 29.3707 273.596 28.56C271.932 27.7067 270.076 27.28 268.028 27.28C265.084 27.28 262.566 28.2187 260.476 30.096C258.428 31.9733 257.254 34.576 256.956 37.904H279.1Z" fill="#009BFF"/>
<path d="M313.027 58.448C308.888 58.448 305.112 57.488 301.699 55.568C298.286 53.6053 295.576 50.896 293.571 47.44C291.608 43.9413 290.627 40.016 290.627 35.664C290.627 31.312 291.608 27.408 293.571 23.952C295.576 20.4533 298.286 17.744 301.699 15.824C305.112 13.8613 308.888 12.88 313.027 12.88C317.208 12.88 321.006 13.8613 324.419 15.824C327.832 17.744 330.52 20.432 332.483 23.888C334.446 27.344 335.427 31.2693 335.427 35.664C335.427 40.0587 334.446 43.984 332.483 47.44C330.52 50.896 327.832 53.6053 324.419 55.568C321.006 57.488 317.208 58.448 313.027 58.448ZM313.027 53.392C316.142 53.392 318.936 52.6667 321.411 51.216C323.928 49.7653 325.891 47.696 327.299 45.008C328.75 42.32 329.475 39.2053 329.475 35.664C329.475 32.08 328.75 28.9653 327.299 26.32C325.891 23.632 323.95 21.5627 321.475 20.112C319 18.6613 316.184 17.936 313.027 17.936C309.87 17.936 307.054 18.6613 304.579 20.112C302.104 21.5627 300.142 23.632 298.691 26.32C297.283 28.9653 296.579 32.08 296.579 35.664C296.579 39.2053 297.283 42.32 298.691 45.008C300.142 47.696 302.104 49.7653 304.579 51.216C307.096 52.6667 309.912 53.392 313.027 53.392ZM340.94 40.4C340.94 36.7733 341.665 33.616 343.116 30.928C344.566 28.1973 346.572 26.0853 349.132 24.592C351.734 23.0987 354.7 22.352 358.028 22.352C362.337 22.352 365.878 23.3973 368.652 25.488C371.468 27.5787 373.324 30.48 374.22 34.192H367.948C367.35 32.0587 366.177 30.3733 364.428 29.136C362.721 27.8987 360.588 27.28 358.028 27.28C354.7 27.28 352.012 28.432 349.964 30.736C347.916 32.9973 346.892 36.2187 346.892 40.4C346.892 44.624 347.916 47.888 349.964 50.192C352.012 52.496 354.7 53.648 358.028 53.648C360.588 53.648 362.721 53.0507 364.428 51.856C366.134 50.6613 367.308 48.9547 367.948 46.736H374.22C373.281 50.32 371.404 53.2 368.588 55.376C365.772 57.5093 362.252 58.576 358.028 58.576C354.7 58.576 351.734 57.8293 349.132 56.336C346.572 54.8427 344.566 52.7307 343.116 50C341.665 47.2693 340.94 44.0693 340.94 40.4ZM413.991 39.12C413.991 40.2293 413.927 41.4027 413.799 42.64H385.767C385.98 46.096 387.153 48.8053 389.287 50.768C391.463 52.688 394.087 53.648 397.159 53.648C399.676 53.648 401.767 53.072 403.431 51.92C405.137 50.7253 406.332 49.1467 407.015 47.184H413.287C412.348 50.5547 410.471 53.3067 407.655 55.44C404.839 57.5307 401.34 58.576 397.159 58.576C393.831 58.576 390.844 57.8293 388.199 56.336C385.596 54.8427 383.548 52.7307 382.055 50C380.561 47.2267 379.815 44.0267 379.815 40.4C379.815 36.7733 380.54 33.5947 381.991 30.864C383.441 28.1333 385.468 26.0427 388.071 24.592C390.716 23.0987 393.745 22.352 397.159 22.352C400.487 22.352 403.431 23.0773 405.991 24.528C408.551 25.9787 410.513 27.984 411.879 30.544C413.287 33.0613 413.991 35.92 413.991 39.12ZM407.975 37.904C407.975 35.6853 407.484 33.7867 406.503 32.208C405.521 30.5867 404.177 29.3707 402.471 28.56C400.807 27.7067 398.951 27.28 396.903 27.28C393.959 27.28 391.441 28.2187 389.351 30.096C387.303 31.9733 386.129 34.576 385.831 37.904H407.975ZM419.502 40.336C419.502 36.752 420.227 33.616 421.678 30.928C423.129 28.1973 425.113 26.0853 427.63 24.592C430.19 23.0987 433.027 22.352 436.142 22.352C439.214 22.352 441.881 23.0133 444.142 24.336C446.403 25.6587 448.089 27.3227 449.198 29.328V22.928H455.086V58H449.198V51.472C448.046 53.52 446.318 55.2267 444.014 56.592C441.753 57.9147 439.107 58.576 436.078 58.576C432.963 58.576 430.147 57.808 427.63 56.272C425.113 54.736 423.129 52.5813 421.678 49.808C420.227 47.0347 419.502 43.8773 419.502 40.336ZM449.198 40.4C449.198 37.7547 448.665 35.4507 447.598 33.488C446.531 31.5253 445.081 30.032 443.246 29.008C441.454 27.9413 439.47 27.408 437.294 27.408C435.118 27.408 433.134 27.92 431.342 28.944C429.55 29.968 428.121 31.4613 427.054 33.424C425.987 35.3867 425.454 37.6907 425.454 40.336C425.454 43.024 425.987 45.3707 427.054 47.376C428.121 49.3387 429.55 50.8533 431.342 51.92C433.134 52.944 435.118 53.456 437.294 53.456C439.47 53.456 441.454 52.944 443.246 51.92C445.081 50.8533 446.531 49.3387 447.598 47.376C448.665 45.3707 449.198 43.0453 449.198 40.4ZM482.016 22.288C486.283 22.288 489.739 23.5893 492.384 26.192C495.029 28.752 496.352 32.464 496.352 37.328V58H490.592V38.16C490.592 34.6613 489.717 31.9947 487.968 30.16C486.219 28.2827 483.829 27.344 480.8 27.344C477.728 27.344 475.275 28.304 473.44 30.224C471.648 32.144 470.752 34.9387 470.752 38.608V58H464.928V22.928H470.752V27.92C471.904 26.128 473.461 24.7413 475.424 23.76C477.429 22.7787 479.627 22.288 482.016 22.288Z" fill="#0071BA"/>
<circle cx="35.5" cy="35.5" r="24.5" stroke="#0071BA" stroke-width="22"/>
</svg>
